<?xml version="1.0" encoding="UTF-8" standalone="no"?>
<svg
   xmlns:dc="http://purl.org/dc/elements/1.1/"
   xmlns:cc="http://creativecommons.org/ns#"
   xmlns:rdf="http://www.w3.org/1999/02/22-rdf-syntax-ns#"
   xmlns:svg="http://www.w3.org/2000/svg"
   xmlns="http://www.w3.org/2000/svg"
   xmlns:sodipodi="http://sodipodi.sourceforge.net/DTD/sodipodi-0.dtd"
   xmlns:inkscape="http://www.inkscape.org/namespaces/inkscape"
   width="200"
   height="200"
   viewBox="0 0 200 200"
   version="1.1"
   id="svg867"
   sodipodi:docname="bg.svg"
   inkscape:version="1.0.2 (e86c8708, 2021-01-15)">
  <metadata
     id="metadata873">
    <rdf:RDF>
      <cc:Work
         rdf:about="">
        <dc:format>image/svg+xml</dc:format>
        <dc:type
           rdf:resource="http://purl.org/dc/dcmitype/StillImage" />
      </cc:Work>
    </rdf:RDF>
  </metadata>
  <defs
     id="defs871" />
  <sodipodi:namedview
     pagecolor="#ffffff"
     bordercolor="#666666"
     borderopacity="1"
     objecttolerance="10"
     gridtolerance="10"
     guidetolerance="10"
     inkscape:pageopacity="0"
     inkscape:pageshadow="2"
     inkscape:window-width="1440"
     inkscape:window-height="765"
     id="namedview869"
     showgrid="false"
     inkscape:zoom="2.8794944"
     inkscape:cx="109.02936"
     inkscape:cy="117.36416"
     inkscape:window-x="0"
     inkscape:window-y="25"
     inkscape:window-maximized="1"
     inkscape:current-layer="svg867" />
  <rect
     fill="#0f0f0f"
     width="200"
     height="200"
     id="rect833"
     style="fill:#000000;fill-opacity:0" />
  <g
     id="g865">
    <polygon
       fill="#b36600"
       points="100 57.1 64 93.1 71.5 100.6 100 72.1"
       id="polygon835" />
    <polygon
       fill="#d97b00"
       points="100 57.1 100 72.1 128.6 100.6 136.1 93.1"
       id="polygon837" />
    <polygon
       fill="#b36600"
       points="100 163.2 100 178.2 170.7 107.5 170.8 92.4"
       id="polygon839" />
    <polygon
       fill="#d97b00"
       points="100 163.2 29.2 92.5 29.2 107.5 100 178.2"
       id="polygon841" />
    <path
       fill="#ff9100"
       d="M100 21.8L29.2 92.5l70.7 70.7l70.7-70.7L100 21.8z M100 127.9L64.6 92.5L100 57.1l35.4 35.4L100 127.9z"
       id="path843" />
    <polygon
       fill="#4eb3ae"
       points="0 157.1 0 172.1 28.6 200.6 36.1 193.1"
       id="polygon845" />
    <polygon
       fill="#5ed9d3"
       points="70.7 200 70.8 192.4 63.2 200"
       id="polygon847" />
    <polygon
       fill="#6ffff8"
       points="27.8 200 63.2 200 70.7 192.5 0 121.8 0 157.2 35.3 192.5"
       id="polygon849" />
    <polygon
       fill="#5ed9d3"
       points="200 157.1 164 193.1 171.5 200.6 200 172.1"
       id="polygon851" />
    <polygon
       fill="#4eb3ae"
       points="136.7 200 129.2 192.5 129.2 200"
       id="polygon853" />
    <polygon
       fill="#6ffff8"
       points="172.1 200 164.6 192.5 200 157.1 200 157.2 200 121.8 200 121.8 129.2 192.5 136.7 200"
       id="polygon855" />
    <polygon
       fill="#4eb3ae"
       points="129.2 0 129.2 7.5 200 78.2 200 63.2 136.7 0"
       id="polygon857" />
    <polygon
       fill="#6ffff8"
       points="200 27.8 200 27.9 172.1 0 136.7 0 200 63.2 200 63.2"
       id="polygon859" />
    <polygon
       fill="#5ed9d3"
       points="63.2 0 0 63.2 0 78.2 70.7 7.5 70.7 0"
       id="polygon861" />
    <polygon
       fill="#6ffff8"
       points="0 63.2 63.2 0 27.8 0 0 27.8"
       id="polygon863" />
  </g>
</svg>
