<?xml version="1.0" encoding="UTF-8" standalone="no"?><!-- Generator: Gravit.io --><svg xmlns="http://www.w3.org/2000/svg" xmlns:xlink="http://www.w3.org/1999/xlink" style="isolation:isolate" viewBox="0 0 1024 1024" width="1024pt" height="1024pt"><defs><clipPath id="_clipPath_UIgA9p9hW7tv13ys6gXiwNRUvsx7udz7"><rect width="1024" height="1024"/></clipPath></defs><g clip-path="url(#_clipPath_UIgA9p9hW7tv13ys6gXiwNRUvsx7udz7)"><radialGradient id="_rgradient_0" fx="0.5" fy="0.5" cx="0.5" cy="0.5" r="0.5" gradientTransform="matrix(1240,0.77,-0.727,973.776,-119.636,32.343)" gradientUnits="userSpaceOnUse"><stop offset="0%" stop-opacity="1" style="stop-color:rgb(244,255,182)"/><stop offset="100%" stop-opacity="1" style="stop-color:rgb(111,255,248)"/></radialGradient><path d=" M 100 115.47 L 100 808.29 L 200 866.025 L 50 952.628 L 300 923.76 L 550 1010.363 L 950 779.423 L 950 144.338 L 750 28.868 L 250 28.868 L 100 115.47 Z " fill="url(#_rgradient_0)"/><g><path d=" M 650 837.658 L 500 924.393 L 500 520.248 L 650 433.513 L 650 837.658 Z " fill="rgb(245,255,186)"/><path d=" M 850 375.778 L 700 462.513 L 200 173.838 L 350 87.103 L 850 375.778 Z " fill="rgb(255,202,118)"/><path d=" M 700 462.513 L 700 635.718 L 850 548.983 L 850 375.778 L 700 462.513 Z " fill="rgb(255,226,122)"/><path d=" M 499.309 519.849 L 200 347.043 L 200 173.838 L 700 462.513 L 700 635.718 L 499.309 519.849 Z " fill="rgb(255,145,0)"/><path d=" M 500 924.393 L 500 520.248 L 350 433.645 L 350 837.79 L 500 924.393 Z " fill="rgb(255,206,58)"/></g></g></svg>